<svg width="24" height="24" viewBox="0 0 24 24" fill="none" xmlns="http://www.w3.org/2000/svg">
<path fill-rule="evenodd" clip-rule="evenodd" d="M12 24C18.0751 24 23 19.0751 23 13C23 6.92487 18.0751 2 12 2C5.92487 2 1 6.92487 1 13C1 19.0751 5.92487 24 12 24ZM6.58444 7.92949C7.51997 7.53715 8.27627 7.29829 9.26949 7.08148C9.51128 7.0287 9.62448 6.99683 9.70515 7.03454C9.7888 7.07365 9.83746 7.18758 9.95823 7.43064L10.1617 7.84014L10.3183 7.82249C10.4043 7.8128 10.6157 7.78831 10.7878 7.76808C11.1957 7.72019 12.8261 7.72043 13.2141 7.76844C13.3777 7.78868 13.5822 7.81378 13.6686 7.82418L13.8257 7.84309L13.9906 7.49363C14.0814 7.30142 14.1808 7.11171 14.2116 7.0721L14.2675 7L14.5469 7.051C15.3099 7.19027 16.3421 7.49738 17.134 7.82073L17.5633 7.99602L17.7948 8.3544C19.3645 10.7846 20.0787 13.2591 19.9931 15.9716C19.9809 16.3606 19.9615 16.7547 19.9501 16.8473L19.9293 17.0156L19.5223 17.2873C18.4983 17.9709 17.4551 18.4855 16.3021 18.8755C16.0979 18.9446 15.9147 19.0006 15.8951 19C15.7981 18.9968 14.9864 17.6745 15.0483 17.6206C15.064 17.6069 15.1895 17.5516 15.3273 17.4976C15.6762 17.361 16.3291 17.0246 16.3291 16.9814C16.3291 16.9618 16.2664 16.897 16.1899 16.8375C16.0523 16.7306 16.0494 16.7298 15.9394 16.7764C15.0795 17.1401 14.3485 17.3581 13.5428 17.4911C11.7939 17.7799 9.90394 17.5555 8.25244 16.8629L7.93979 16.7318L7.80376 16.8277C7.63659 16.9457 7.62284 16.9663 7.677 17.0179C7.73 17.0685 8.53123 17.4595 8.77642 17.5545C8.87544 17.5928 8.95643 17.6333 8.95643 17.6445C8.95643 17.7358 8.17656 18.9595 8.09995 18.9884C8.07876 18.9964 7.87501 18.9402 7.6472 18.8635C6.5399 18.4909 5.48124 17.9666 4.46398 17.2872L4.05699 17.0154L4.03051 16.8472C4.01592 16.7547 4.00236 16.2222 4.00033 15.664C3.99638 14.5737 4.02616 14.1911 4.1836 13.3094C4.48636 11.6136 5.15531 9.96164 6.18955 8.35573C6.40525 8.02078 6.42976 7.99436 6.58444 7.92949ZM10.7286 13.2091C10.6149 12.7357 10.3168 12.3515 9.90945 12.1538C9.71078 12.0573 9.64354 12.0407 9.40445 12.0296C9.17373 12.0189 9.09461 12.0285 8.92061 12.0885C8.55032 12.216 8.25795 12.4738 8.08029 12.8292C7.75408 13.4819 7.87617 14.2801 8.37745 14.772C9.14358 15.5238 10.3242 15.2029 10.6861 14.1445C10.7714 13.8949 10.7908 13.4683 10.7286 13.2091ZM16.0938 13.5866C16.0951 12.9546 15.7729 12.4166 15.2372 12.1565C15.0315 12.0566 14.9681 12.041 14.7265 12.0305C14.4076 12.0167 14.1913 12.0724 13.934 12.2346C13.4061 12.5674 13.1201 13.2829 13.2578 13.9262C13.5199 15.1513 14.8355 15.5997 15.6503 14.7418C15.9459 14.4306 16.0929 14.0477 16.0938 13.5866Z" fill="#FDDA60"/>
</svg>
